<svg width="1920" height="959" viewBox="0 0 1920 959" fill="none" xmlns="http://www.w3.org/2000/svg">
<mask id="mask0_71_2926" style="mask-type:alpha" maskUnits="userSpaceOnUse" x="-69" y="-29" width="2411" height="985">
<rect x="-69" y="-29" width="2410.28" height="984.979" fill="#C4C4C4"/>
</mask>
<g mask="url(#mask0_71_2926)">
<path d="M2688.94 -127.489C2304.54 -67.6441 1701.87 53.4661 2008.47 435.78C2398.64 922.302 3352.1 794.847 2928.63 1170.36" stroke="#DFDFDF" stroke-opacity="0.15" stroke-width="2.33945"/>
<path d="M2552.48 -111.011C2168.08 -51.1662 1565.41 69.944 1872.01 452.258C2262.18 938.78 3215.64 811.325 2792.18 1186.84" stroke="#DFDFDF" stroke-opacity="0.15" stroke-width="2.33945"/>
<path d="M2415.11 -108.402C2030.71 -48.5572 1428.04 72.553 1734.64 454.867C2124.81 941.389 3078.27 813.934 2654.81 1189.45" stroke="#DFDFDF" stroke-opacity="0.15" stroke-width="2.33945"/>
<path d="M2277.95 -116.78C1893.55 -56.9357 1290.88 64.1745 1597.48 446.489C1987.66 933.01 2941.11 805.555 2517.65 1181.07" stroke="#DFDFDF" stroke-opacity="0.15" stroke-width="2.33945"/>
<path d="M2141.45 -132.9C1757.05 -73.056 1154.38 48.0542 1460.98 430.368C1851.16 916.89 2804.61 789.435 2381.15 1164.95" stroke="#DFDFDF" stroke-opacity="0.15" stroke-width="2.33945"/>
<path d="M2005.57 -153.782C1621.17 -93.9375 1018.5 27.1727 1325.1 409.487C1715.27 896.008 2668.73 768.553 2245.27 1144.07" stroke="#DFDFDF" stroke-opacity="0.15" stroke-width="2.33945"/>
<path d="M1870.03 -176.967C1485.63 -117.123 882.962 3.98736 1189.56 386.301C1579.73 872.823 2533.19 745.368 2109.73 1120.88" stroke="#DFDFDF" stroke-opacity="0.15" stroke-width="2.33945"/>
<path d="M1734.56 -200.542C1350.16 -140.697 747.491 -19.5869 1054.09 362.727C1444.26 849.249 2397.72 721.794 1974.26 1097.31" stroke="#DFDFDF" stroke-opacity="0.15" stroke-width="2.33945"/>
<path d="M1598.92 -223.062C1214.52 -163.218 611.851 -42.1075 918.453 340.207C1308.62 826.728 2262.08 699.273 1838.62 1074.79" stroke="#DFDFDF" stroke-opacity="0.15" stroke-width="2.33945"/>
<path d="M1462.97 -243.472C1078.57 -183.627 475.895 -62.517 782.497 319.797C1172.67 806.319 2126.13 678.864 1702.66 1054.38" stroke="#DFDFDF" stroke-opacity="0.15" stroke-width="2.33945"/>
<path d="M1326.63 -261.018C942.231 -201.173 339.56 -80.0633 646.162 302.251C1036.33 788.772 1989.79 661.317 1566.33 1036.83" stroke="#DFDFDF" stroke-opacity="0.15" stroke-width="2.33945"/>
<path d="M1189.93 -275.19C805.528 -215.345 202.858 -94.2349 509.459 288.079C899.631 774.601 1853.09 647.146 1429.63 1022.66" stroke="#DFDFDF" stroke-opacity="0.15" stroke-width="2.33945"/>
<path d="M1052.07 -285.796C667.665 -225.951 64.9949 -104.841 371.596 277.473C761.768 763.995 1715.22 636.54 1291.76 1012.05" stroke="#DFDFDF" stroke-opacity="0.15" stroke-width="2.33945"/>
<path d="M914.9 -293.96C530.499 -234.115 -72.1711 -113.005 234.43 269.309C624.602 755.831 1578.06 628.376 1154.6 1003.89" stroke="#DFDFDF" stroke-opacity="0.15" stroke-width="2.33945"/>
<path d="M777.636 -300.084C393.234 -240.239 -209.436 -119.129 97.1655 263.185C487.337 749.707 1440.79 622.252 1017.33 997.764" stroke="#DFDFDF" stroke-opacity="0.15" stroke-width="2.33945"/>
<path d="M640.29 -303.888C255.889 -244.044 -346.781 -122.933 -40.1802 259.381C349.991 745.902 1303.45 618.447 879.986 993.96" stroke="#DFDFDF" stroke-opacity="0.15" stroke-width="2.33945"/>
<path d="M502.9 -305.023C118.499 -245.178 -484.171 -124.068 -177.57 258.246C212.602 744.768 1166.06 617.313 742.596 992.825" stroke="#DFDFDF" stroke-opacity="0.15" stroke-width="2.33945"/>
<path d="M365.521 -303.039C-18.8798 -243.195 -621.55 -122.084 -314.949 260.23C75.2229 746.751 1028.68 619.296 605.217 994.809" stroke="#DFDFDF" stroke-opacity="0.15" stroke-width="2.33945"/>
<path d="M228.238 -297.348C-156.163 -237.504 -758.833 -116.394 -452.232 265.92C-62.0603 752.442 891.397 624.987 467.934 1000.5" stroke="#DFDFDF" stroke-opacity="0.15" stroke-width="2.33945"/>
<path d="M91.1981 -287.153C-293.203 -227.309 -895.873 -106.198 -589.272 276.116C-199.1 762.637 754.357 635.182 330.894 1010.69" stroke="#DFDFDF" stroke-opacity="0.15" stroke-width="2.33945"/>
<path d="M-45.3351 -271.337C-429.736 -211.492 -1032.41 -90.382 -725.805 291.932C-335.634 778.454 617.823 650.999 194.361 1026.51" stroke="#DFDFDF" stroke-opacity="0.15" stroke-width="2.33945"/>
<path d="M-180.898 -248.283C-565.299 -188.439 -1167.97 -67.3287 -861.368 314.985C-471.196 801.507 482.261 674.052 58.7983 1049.56" stroke="#DFDFDF" stroke-opacity="0.15" stroke-width="2.33945"/>
<path d="M-314.555 -215.691C-698.956 -155.846 -1301.63 -34.7363 -995.025 347.578C-604.854 834.099 348.603 706.644 -74.8594 1082.16" stroke="#DFDFDF" stroke-opacity="0.15" stroke-width="2.33945"/>
</g>
</svg>
