<svg width="80" height="79" viewBox="0 0 80 79" fill="none" xmlns="http://www.w3.org/2000/svg">
<path d="M42.3392 75.4889L40.3799 74.8615C40.3799 74.8615 40.6408 65.2867 37.0537 64.6139C34.7057 61.9733 37.4007 -48.1196 45.9837 64.2385C44.3552 65.0363 43.1092 66.4113 42.5062 68.076C42.1829 70.5345 42.127 73.0191 42.3392 75.4889Z" fill="url(#paint0_linear_144_2662)"/>
<path d="M43.7694 66.2391C48.9859 62.4463 52.9809 57.3016 55.29 51.4028C57.5991 45.504 58.1274 39.0935 56.8136 32.9161C52.9786 16.576 43.8972 11.204 42.9189 9.15295C42.0748 7.87579 41.3543 6.52626 40.7666 5.12144L41.4893 50.6497C41.4893 50.6497 39.9918 64.5635 43.7694 66.2391Z" fill="#DFDFDF"/>
<path d="M39.5066 66.8438C39.5066 66.8438 23.5379 56.3392 24.4614 37.7565C24.5476 32.1543 25.8775 26.6352 28.3614 21.572C30.8453 16.5088 34.4253 12.0195 38.8596 8.40711C39.3778 7.98191 39.7895 7.44881 40.0638 6.84788C40.338 6.24695 40.4677 5.5938 40.4432 4.9375C41.4371 7.00365 41.2754 35.7861 41.3797 39.1524C41.7841 52.2472 40.6258 64.372 39.5066 66.8438Z" fill="#DFDFDF"/>
<defs>
<linearGradient id="paint0_linear_144_2662" x1="29.1688" y1="40.849" x2="51.5212" y2="48.7025" gradientUnits="userSpaceOnUse">
<stop offset="0.231" stop-color="#999875"/>
<stop offset="0.563" stop-color="#9B9977"/>
<stop offset="0.683" stop-color="#A09F7E"/>
<stop offset="0.768" stop-color="#A9A889"/>
<stop offset="0.837" stop-color="#B7B69A"/>
<stop offset="0.896" stop-color="#C9C7B0"/>
<stop offset="0.948" stop-color="#DEDDCB"/>
<stop offset="0.994" stop-color="#F8F6EB"/>
<stop offset="1" stop-color="#FBF9EF"/>
</linearGradient>
</defs>
</svg>
