<svg width="71" height="71" viewBox="0 0 71 71" fill="none" xmlns="http://www.w3.org/2000/svg">
<path d="M35.4625 66.125C34.6362 66.1253 33.8244 65.908 33.1088 65.495L25.6188 61.0609C24.501 60.4353 25.0456 60.2144 25.4153 60.0853C26.6042 59.718 27.7425 59.2036 28.8038 58.5541C28.8926 58.513 28.9905 58.4952 29.0881 58.5025C29.1857 58.5098 29.2798 58.5418 29.3616 58.5956L35.1169 62.0147C35.2241 62.0714 35.3435 62.101 35.4647 62.101C35.5859 62.101 35.7053 62.0714 35.8125 62.0147L58.2563 49.0603C58.3613 48.9974 58.4482 48.9083 58.5084 48.8017C58.5686 48.6951 58.6001 48.5746 58.5997 48.4522V22.5391C58.5998 22.4147 58.5678 22.2924 58.5069 22.184C58.446 22.0755 58.3581 21.9846 58.2519 21.92L35.8081 8.97657C35.7023 8.91696 35.5829 8.88565 35.4614 8.88565C35.34 8.88565 35.2205 8.91696 35.1147 8.97657L12.6841 21.9244C12.5771 21.9877 12.4882 22.0775 12.4262 22.1852C12.3641 22.2929 12.3308 22.4148 12.3297 22.5391V48.4413C12.33 48.5634 12.3628 48.6833 12.4247 48.7886C12.4866 48.8939 12.5753 48.9809 12.6819 49.0406L18.8375 52.5931C22.1735 54.26 24.2166 52.2956 24.2166 50.3225V24.7484C24.2166 24.5744 24.2857 24.4075 24.4088 24.2844C24.5319 24.1613 24.6988 24.0922 24.8728 24.0922H27.7166C27.8906 24.0922 28.0575 24.1613 28.1806 24.2844C28.3037 24.4075 28.3728 24.5744 28.3728 24.7484V50.3247C28.3728 54.7763 25.9491 57.3247 21.7272 57.3247C19.9058 57.3564 18.113 56.8693 16.5581 55.9203L10.6585 52.5363C9.94224 52.1192 9.34796 51.5215 8.93494 50.803C8.52192 50.0844 8.30461 49.2701 8.3047 48.4413V22.5391C8.30257 21.709 8.51896 20.8929 8.93213 20.173C9.3453 19.453 9.94068 18.8545 10.6585 18.4375L33.1044 5.47875C33.8274 5.08318 34.6383 4.87585 35.4625 4.87585C36.2867 4.87585 37.0976 5.08318 37.8206 5.47875L60.2644 18.4375C60.9805 18.8538 61.5749 19.4506 61.9883 20.1684C62.4017 20.8862 62.6197 21.6998 62.6203 22.5281V48.4413C62.6191 49.2701 62.401 50.0841 61.9877 50.8025C61.5744 51.5209 60.9803 52.1186 60.2644 52.5363L37.8206 65.495C37.1037 65.9087 36.2903 66.126 35.4625 66.125Z" fill="#DFDFDF"/>
<path d="M31.2061 39.7722C31.2061 39.5981 31.2752 39.4312 31.3983 39.3081C31.5213 39.1851 31.6883 39.1159 31.8623 39.1159H34.7651C34.9202 39.1164 35.0701 39.1719 35.1883 39.2724C35.3064 39.3729 35.3851 39.512 35.4104 39.665C35.8479 42.6203 37.1604 44.11 43.0951 44.11C47.8223 44.11 49.837 43.0403 49.837 40.5312C49.837 39.0853 49.2661 38.0112 41.9182 37.2916C35.7757 36.6834 31.9782 35.3228 31.9782 30.4141C31.9782 25.8859 35.7954 23.1844 42.1939 23.1844C49.3842 23.1844 52.9432 25.6803 53.3939 31.0353C53.4008 31.1247 53.3892 31.2146 53.36 31.2994C53.3308 31.3841 53.2846 31.462 53.2241 31.5282C53.1637 31.5945 53.0903 31.6476 53.0085 31.6843C52.9267 31.7211 52.8382 31.7406 52.7486 31.7419H49.8261C49.6794 31.7398 49.5377 31.6887 49.4236 31.5967C49.3094 31.5048 49.2293 31.3772 49.1961 31.2344C48.4982 28.1259 46.7898 27.1328 42.1961 27.1328C37.0336 27.1328 36.4342 28.9309 36.4342 30.2784C36.4342 31.9103 37.1429 32.3872 44.1123 33.3081C51.0095 34.2203 54.2864 35.5109 54.2864 40.3584C54.2864 45.2497 50.2089 48.0497 43.0973 48.0497C33.2645 48.0628 31.2061 43.5544 31.2061 39.7722Z" fill="#DFDFDF"/>
</svg>
