<svg width="71" height="71" viewBox="0 0 71 71" fill="none" xmlns="http://www.w3.org/2000/svg">
<path d="M35.889 25.5338L32.0974 19.4379C31.8208 18.9939 31.4347 18.6285 30.9761 18.3767C30.5176 18.125 30.002 17.9954 29.4789 18.0004C28.9558 18.0054 28.4428 18.1448 27.9891 18.4052C27.5354 18.6656 27.1563 19.0383 26.8882 19.4875L9.65072 48.3858C9.37454 48.8487 9.2259 49.3764 9.21991 49.9153C9.21393 50.4542 9.35082 50.9851 9.61665 51.454C9.88248 51.9228 10.2678 52.3128 10.7333 52.5844C11.1988 52.856 11.728 52.9994 12.267 53H23.6799M58.922 53C61.089 53 62.4249 50.5413 61.3136 48.6104L49.5186 28.1558C49.2825 27.7291 48.9365 27.3735 48.5164 27.1258C48.0963 26.8781 47.6175 26.7475 47.1299 26.7475C46.6422 26.7475 46.1635 26.8781 45.7434 27.1258C45.3233 27.3735 44.9772 27.7291 44.7411 28.1558L32.949 48.6104C31.8349 50.5413 33.1707 53 35.3378 53H58.922Z" stroke="#DFDFDF" stroke-width="4" stroke-linecap="round" stroke-linejoin="round"/>
</svg>
