<svg width="82" height="73" viewBox="0 0 82 73" fill="none" xmlns="http://www.w3.org/2000/svg">
<mask id="path-1-outside-1_144_2656" maskUnits="userSpaceOnUse" x="0.462891" y="0.5" width="81" height="72" fill="black">
<rect fill="white" x="0.462891" y="0.5" width="81" height="72"/>
<path d="M66.4166 24.1884C65.5759 23.9011 64.728 23.635 63.8738 23.3903C64.0173 22.8063 64.1494 22.2295 64.2667 21.6628C66.1917 12.3564 64.9332 4.85908 60.6348 2.39059C56.5135 0.024139 49.7736 2.49171 42.9666 8.39156C42.2957 8.97405 41.6398 9.57334 40.9993 10.1888C40.5706 9.77955 40.1342 9.37821 39.6906 8.98501C32.5565 2.67672 25.4058 0.0179921 21.112 2.49355C16.9944 4.86738 15.7752 11.9154 17.5082 20.7352C17.6806 21.6087 17.8753 22.4777 18.0921 23.3414C17.0799 23.6278 16.1032 23.9327 15.1685 24.2573C6.80434 27.1615 1.46289 31.7128 1.46289 36.4337C1.46289 41.3096 7.19718 46.2001 15.9088 49.1656C16.615 49.405 17.3272 49.6269 18.0446 49.831C17.8116 50.7611 17.6047 51.6976 17.4243 52.6394C15.7721 61.3061 17.0623 68.1876 21.1688 70.5464C25.4101 72.9823 32.5287 70.4787 39.46 64.4443C40.0221 63.9537 40.5718 63.4492 41.1085 62.9313C41.8021 63.5978 42.5142 64.2448 43.244 64.8718C49.9584 70.6256 56.5895 72.9491 60.6919 70.5838C64.9292 68.1409 66.3065 60.7483 64.5185 51.7542C64.3776 51.0496 64.2197 50.3485 64.0448 49.6515C64.5447 49.5039 65.0354 49.3521 65.5137 49.1942C74.5703 46.206 80.4629 41.3747 80.4629 36.4337C80.4629 31.6956 74.9489 27.1136 66.4166 24.1884ZM64.4524 46.0041C64.0204 46.1464 63.5773 46.2837 63.1255 46.4174C62.1256 43.2651 60.7765 39.9134 59.1252 36.45C60.7009 33.0694 61.9982 29.7603 62.9699 26.6286C63.7781 26.8616 64.5623 27.1071 65.3183 27.3662C72.6289 29.8728 77.0881 33.5783 77.0881 36.4337C77.0881 39.4751 72.2722 43.4234 64.4524 46.0041ZM61.2079 52.407C61.9985 56.3839 62.1111 59.9797 61.5874 62.7908C61.1171 65.3168 60.171 67.0007 59.0008 67.6753C56.5114 69.1105 51.1872 67.245 45.4452 62.324C44.7664 61.7411 44.104 61.1395 43.4588 60.52C45.685 58.0954 47.9096 55.2769 50.0809 52.1464C53.9001 51.8089 57.5081 51.257 60.7802 50.5037C60.9378 51.1347 61.0804 51.7693 61.2079 52.407ZM28.3957 67.4272C25.9634 68.2825 24.026 68.3071 22.8549 67.6347C20.363 66.2034 19.3271 60.6779 20.7401 53.2663C20.9081 52.3905 21.1004 51.5195 21.3169 50.6543C24.5528 51.3673 28.1346 51.8799 31.9628 52.1891C34.1488 55.2523 36.4377 58.0678 38.7444 60.5332C38.2542 61.0056 37.7524 61.4659 37.2394 61.9137C34.1741 64.582 31.1027 66.4751 28.3957 67.4272ZM17.0006 45.9853C13.1484 44.6739 9.96712 42.9698 7.78659 41.1101C5.82702 39.4391 4.83798 37.7799 4.83798 36.4337C4.83798 33.5688 9.12651 29.9146 16.2794 27.4311C17.1475 27.1299 18.056 26.8456 18.9987 26.5788C19.9875 29.7812 21.2842 33.1296 22.8491 36.5155C21.2638 39.9515 19.9486 43.3533 18.9503 46.5935C18.2955 46.4067 17.6454 46.2039 17.0006 45.9853ZM20.8204 20.0895C19.3357 12.5332 20.3217 6.83308 22.8031 5.40245C25.4459 3.87869 31.29 6.05122 37.4499 11.4984C37.8515 11.8544 38.2467 12.2176 38.6352 12.5879C36.3398 15.0425 34.072 17.8371 31.9054 20.8821C28.1899 21.2251 24.6333 21.7759 21.3635 22.5138C21.162 21.7105 20.9809 20.9019 20.8204 20.0895ZM54.8974 28.4699C54.1251 27.1412 53.3241 25.8293 52.495 24.5351C55.0156 24.8526 57.4307 25.2739 59.6985 25.789C59.0178 27.9624 58.1692 30.2346 57.1702 32.5641C56.4401 31.1844 55.6823 29.8194 54.8974 28.4699ZM41.0008 14.99C42.5574 16.6695 44.1164 18.5446 45.6498 20.5791C42.5392 20.4328 39.4234 20.4322 36.3127 20.5773C37.8476 18.5615 39.4199 16.6889 41.0008 14.99ZM27.0151 28.4929C26.24 29.8316 25.4964 31.1881 24.7849 32.5614C23.8023 30.2401 22.9614 27.9575 22.2748 25.7533C24.5287 25.2512 26.9324 24.8406 29.4369 24.5289C28.5986 25.8311 27.7911 27.153 27.0151 28.4929ZM29.5088 48.5777C26.9213 48.29 24.4815 47.9006 22.2282 47.4119C22.9256 45.1684 23.785 42.8373 24.7889 40.4662C25.5032 41.8405 26.2499 43.1979 27.0283 44.5372C27.8288 45.914 28.6577 47.2626 29.5088 48.5777ZM41.094 58.1142C39.4943 56.3956 37.8989 54.4941 36.3408 52.4491C37.8535 52.5081 39.3955 52.5382 40.9629 52.5382C42.5731 52.5382 44.1649 52.5023 45.7316 52.4328C44.1932 54.5147 42.6401 56.4189 41.094 58.1142ZM57.202 40.3452C58.258 42.7423 59.148 45.0612 59.8547 47.2663C57.5643 47.7869 55.0912 48.2061 52.4855 48.5174C53.3205 47.1991 54.129 45.8644 54.9107 44.5141C55.7054 43.1416 56.4694 41.7516 57.202 40.3452ZM51.9874 42.8349C50.7907 44.9052 49.5268 46.9362 48.1976 48.9246C45.7898 49.0945 43.3767 49.1788 40.9629 49.1776C38.5043 49.1776 36.113 49.1013 33.8103 48.9526C32.4464 46.9687 31.1583 44.9342 29.9489 42.8533C28.7451 40.7834 27.621 38.6688 26.5784 36.514C27.6184 34.3586 28.7393 32.243 29.939 30.1715C31.1382 28.0996 32.4157 26.074 33.7693 24.0987C36.1186 23.9216 38.5278 23.8294 40.9626 23.8294C43.4085 23.8294 45.8211 23.9226 48.1698 24.1008C49.5097 26.0732 50.7793 28.0921 51.9763 30.1537C53.1799 32.2206 54.3157 34.3259 55.3819 36.4663C54.3267 38.6286 53.1945 40.7528 51.9874 42.8349ZM58.9493 5.30226C61.5945 6.8217 62.6234 12.949 60.9613 20.9842C60.8552 21.4968 60.736 22.019 60.6064 22.5485C57.3285 21.7949 53.7695 21.2346 50.0433 20.8864C47.8726 17.8079 45.6233 15.009 43.3653 12.586C43.9571 12.0179 44.5629 11.4646 45.1823 10.9264C51.0147 5.87174 56.4657 3.87593 58.9493 5.30226ZM40.9629 29.4081C44.8589 29.4081 48.0173 32.5537 48.0173 36.4337C48.0173 40.3138 44.8589 43.4594 40.9629 43.4594C37.0669 43.4594 33.9084 40.3138 33.9084 36.4337C33.9084 32.5537 37.0669 29.4081 40.9629 29.4081Z"/>
</mask>
<path d="M66.4166 24.1884C65.5759 23.9011 64.728 23.635 63.8738 23.3903C64.0173 22.8063 64.1494 22.2295 64.2667 21.6628C66.1917 12.3564 64.9332 4.85908 60.6348 2.39059C56.5135 0.024139 49.7736 2.49171 42.9666 8.39156C42.2957 8.97405 41.6398 9.57334 40.9993 10.1888C40.5706 9.77955 40.1342 9.37821 39.6906 8.98501C32.5565 2.67672 25.4058 0.0179921 21.112 2.49355C16.9944 4.86738 15.7752 11.9154 17.5082 20.7352C17.6806 21.6087 17.8753 22.4777 18.0921 23.3414C17.0799 23.6278 16.1032 23.9327 15.1685 24.2573C6.80434 27.1615 1.46289 31.7128 1.46289 36.4337C1.46289 41.3096 7.19718 46.2001 15.9088 49.1656C16.615 49.405 17.3272 49.6269 18.0446 49.831C17.8116 50.7611 17.6047 51.6976 17.4243 52.6394C15.7721 61.3061 17.0623 68.1876 21.1688 70.5464C25.4101 72.9823 32.5287 70.4787 39.46 64.4443C40.0221 63.9537 40.5718 63.4492 41.1085 62.9313C41.8021 63.5978 42.5142 64.2448 43.244 64.8718C49.9584 70.6256 56.5895 72.9491 60.6919 70.5838C64.9292 68.1409 66.3065 60.7483 64.5185 51.7542C64.3776 51.0496 64.2197 50.3485 64.0448 49.6515C64.5447 49.5039 65.0354 49.3521 65.5137 49.1942C74.5703 46.206 80.4629 41.3747 80.4629 36.4337C80.4629 31.6956 74.9489 27.1136 66.4166 24.1884ZM64.4524 46.0041C64.0204 46.1464 63.5773 46.2837 63.1255 46.4174C62.1256 43.2651 60.7765 39.9134 59.1252 36.45C60.7009 33.0694 61.9982 29.7603 62.9699 26.6286C63.7781 26.8616 64.5623 27.1071 65.3183 27.3662C72.6289 29.8728 77.0881 33.5783 77.0881 36.4337C77.0881 39.4751 72.2722 43.4234 64.4524 46.0041ZM61.2079 52.407C61.9985 56.3839 62.1111 59.9797 61.5874 62.7908C61.1171 65.3168 60.171 67.0007 59.0008 67.6753C56.5114 69.1105 51.1872 67.245 45.4452 62.324C44.7664 61.7411 44.104 61.1395 43.4588 60.52C45.685 58.0954 47.9096 55.2769 50.0809 52.1464C53.9001 51.8089 57.5081 51.257 60.7802 50.5037C60.9378 51.1347 61.0804 51.7693 61.2079 52.407ZM28.3957 67.4272C25.9634 68.2825 24.026 68.3071 22.8549 67.6347C20.363 66.2034 19.3271 60.6779 20.7401 53.2663C20.9081 52.3905 21.1004 51.5195 21.3169 50.6543C24.5528 51.3673 28.1346 51.8799 31.9628 52.1891C34.1488 55.2523 36.4377 58.0678 38.7444 60.5332C38.2542 61.0056 37.7524 61.4659 37.2394 61.9137C34.1741 64.582 31.1027 66.4751 28.3957 67.4272ZM17.0006 45.9853C13.1484 44.6739 9.96712 42.9698 7.78659 41.1101C5.82702 39.4391 4.83798 37.7799 4.83798 36.4337C4.83798 33.5688 9.12651 29.9146 16.2794 27.4311C17.1475 27.1299 18.056 26.8456 18.9987 26.5788C19.9875 29.7812 21.2842 33.1296 22.8491 36.5155C21.2638 39.9515 19.9486 43.3533 18.9503 46.5935C18.2955 46.4067 17.6454 46.2039 17.0006 45.9853ZM20.8204 20.0895C19.3357 12.5332 20.3217 6.83308 22.8031 5.40245C25.4459 3.87869 31.29 6.05122 37.4499 11.4984C37.8515 11.8544 38.2467 12.2176 38.6352 12.5879C36.3398 15.0425 34.072 17.8371 31.9054 20.8821C28.1899 21.2251 24.6333 21.7759 21.3635 22.5138C21.162 21.7105 20.9809 20.9019 20.8204 20.0895ZM54.8974 28.4699C54.1251 27.1412 53.3241 25.8293 52.495 24.5351C55.0156 24.8526 57.4307 25.2739 59.6985 25.789C59.0178 27.9624 58.1692 30.2346 57.1702 32.5641C56.4401 31.1844 55.6823 29.8194 54.8974 28.4699ZM41.0008 14.99C42.5574 16.6695 44.1164 18.5446 45.6498 20.5791C42.5392 20.4328 39.4234 20.4322 36.3127 20.5773C37.8476 18.5615 39.4199 16.6889 41.0008 14.99ZM27.0151 28.4929C26.24 29.8316 25.4964 31.1881 24.7849 32.5614C23.8023 30.2401 22.9614 27.9575 22.2748 25.7533C24.5287 25.2512 26.9324 24.8406 29.4369 24.5289C28.5986 25.8311 27.7911 27.153 27.0151 28.4929ZM29.5088 48.5777C26.9213 48.29 24.4815 47.9006 22.2282 47.4119C22.9256 45.1684 23.785 42.8373 24.7889 40.4662C25.5032 41.8405 26.2499 43.1979 27.0283 44.5372C27.8288 45.914 28.6577 47.2626 29.5088 48.5777ZM41.094 58.1142C39.4943 56.3956 37.8989 54.4941 36.3408 52.4491C37.8535 52.5081 39.3955 52.5382 40.9629 52.5382C42.5731 52.5382 44.1649 52.5023 45.7316 52.4328C44.1932 54.5147 42.6401 56.4189 41.094 58.1142ZM57.202 40.3452C58.258 42.7423 59.148 45.0612 59.8547 47.2663C57.5643 47.7869 55.0912 48.2061 52.4855 48.5174C53.3205 47.1991 54.129 45.8644 54.9107 44.5141C55.7054 43.1416 56.4694 41.7516 57.202 40.3452ZM51.9874 42.8349C50.7907 44.9052 49.5268 46.9362 48.1976 48.9246C45.7898 49.0945 43.3767 49.1788 40.9629 49.1776C38.5043 49.1776 36.113 49.1013 33.8103 48.9526C32.4464 46.9687 31.1583 44.9342 29.9489 42.8533C28.7451 40.7834 27.621 38.6688 26.5784 36.514C27.6184 34.3586 28.7393 32.243 29.939 30.1715C31.1382 28.0996 32.4157 26.074 33.7693 24.0987C36.1186 23.9216 38.5278 23.8294 40.9626 23.8294C43.4085 23.8294 45.8211 23.9226 48.1698 24.1008C49.5097 26.0732 50.7793 28.0921 51.9763 30.1537C53.1799 32.2206 54.3157 34.3259 55.3819 36.4663C54.3267 38.6286 53.1945 40.7528 51.9874 42.8349ZM58.9493 5.30226C61.5945 6.8217 62.6234 12.949 60.9613 20.9842C60.8552 21.4968 60.736 22.019 60.6064 22.5485C57.3285 21.7949 53.7695 21.2346 50.0433 20.8864C47.8726 17.8079 45.6233 15.009 43.3653 12.586C43.9571 12.0179 44.5629 11.4646 45.1823 10.9264C51.0147 5.87174 56.4657 3.87593 58.9493 5.30226ZM40.9629 29.4081C44.8589 29.4081 48.0173 32.5537 48.0173 36.4337C48.0173 40.3138 44.8589 43.4594 40.9629 43.4594C37.0669 43.4594 33.9084 40.3138 33.9084 36.4337C33.9084 32.5537 37.0669 29.4081 40.9629 29.4081Z" stroke="#DFDFDF" stroke-width="2" mask="url(#path-1-outside-1_144_2656)"/>
</svg>
