<svg width="71" height="71" viewBox="0 0 71 71" fill="none" xmlns="http://www.w3.org/2000/svg">
<g clip-path="url(#clip0_144_2653)">
<path d="M1.46289 60.5V35.5V10.5C1.46289 5.52944 5.49233 1.5 10.4629 1.5H60.4629C65.4335 1.5 69.4629 5.52944 69.4629 10.5V60.5C69.4629 65.4706 65.4335 69.5 60.4629 69.5H10.4629C5.49233 69.5 1.46289 65.4706 1.46289 60.5Z" stroke="#DFDFDF" stroke-width="2"/>
<path d="M15.943 35.7324L15.9209 38.5989H25.0318V64.4879H31.4762V38.5989H40.5874V35.7879C40.5874 34.2321 40.5541 32.9321 40.5098 32.8988C40.4764 32.8545 34.9316 32.8321 28.2097 32.8433L15.9761 32.8766L15.943 35.7321V35.7324ZM56.9464 32.7951C58.724 33.2395 60.0797 34.0283 61.3241 35.3173C61.9686 36.0064 62.924 37.2617 63.0019 37.5617C63.0238 37.6506 59.9796 39.6951 58.1353 40.8397C58.0686 40.884 57.8017 40.5952 57.5017 40.1506C56.6018 38.8395 55.6574 38.2729 54.2128 38.1728C52.0909 38.0285 50.724 39.1394 50.7352 40.995C50.7352 41.5397 50.8129 41.8618 51.0352 42.3061C51.502 43.273 52.3685 43.8508 55.0908 45.0285C60.1018 47.184 62.2461 48.6061 63.5797 50.6284C65.0686 52.884 65.4019 56.4841 64.3907 59.1619C63.2797 62.0729 60.5243 64.0507 56.6461 64.7061C55.4463 64.9172 52.602 64.8838 51.313 64.6506C48.5021 64.1507 45.8352 62.7617 44.1908 60.9395C43.5463 60.2286 42.2907 58.3727 42.3686 58.2396C42.402 58.195 42.6907 58.0173 43.0128 57.8283C43.324 57.6506 44.502 56.9727 45.6129 56.3285L47.6241 55.1618L48.0463 55.7841C48.6352 56.6837 49.9239 57.9172 50.7019 58.3284C52.935 59.5061 56.0019 59.3396 57.5129 57.9839C58.1574 57.3952 58.424 56.7841 58.424 55.8839C58.424 55.0729 58.3239 54.7174 57.9018 54.1063C57.3576 53.3284 56.2464 52.6729 53.0906 51.3063C49.4796 49.7504 47.924 48.7841 46.5019 47.2507C45.6797 46.362 44.9017 44.9396 44.5796 43.7507C44.313 42.7617 44.246 40.284 44.4574 39.2841C45.202 35.795 47.8352 33.3617 51.6351 32.6396C52.8683 32.4063 55.735 32.4952 56.9464 32.7951Z" fill="#DFDFDF"/>
</g>
<defs>
<clipPath id="clip0_144_2653">
<rect x="0.462891" y="0.5" width="70" height="70" rx="10" fill="white"/>
</clipPath>
</defs>
</svg>
